# xmcd
#
# Track frame offsets:
#   150
#   15210
#   29209
#   49003
#   66364
#   80391
#   94077
#   105695
#   120048
#   137861
#   152607
#   171799
#   183295
#   195409
#   211027
#   255170
#
# Disc length: 3947 seconds
#
# Revision: 0
# Processed by: cddbd v1.5.1PL2 Copyright (c) Steve Scherf et al.
# Submitted via: GXTranscoder 2.0.1939
#
DISCID=c10f6910
DTITLE=la fiesta - año
DYEAR=1900
DGENRE=Blues
TTITLE0=n
TTITLE1=n
TTITLE2=n
TTITLE3=n
TTITLE4=n
TTITLE5=n
TTITLE6=n
TTITLE7=n
TTITLE8=n
TTITLE9=n
TTITLE10=n
TTITLE11=n
TTITLE12=n
TTITLE13=n
TTITLE14=n
TTITLE15=n
EXTD=
EXTT0=
EXTT1=
EXTT2=
EXTT3=
EXTT4=
EXTT5=
EXTT6=
EXTT7=
EXTT8=
EXTT9=
EXTT10=
EXTT11=
EXTT12=
EXTT13=
EXTT14=
EXTT15=
PLAYORDER=
